<?xml version="1.0" encoding="utf-8"?>
<!-- Generator: Adobe Illustrator 18.0.0, SVG Export Plug-In . SVG Version: 6.00 Build 0)  -->
<svg version="1.2" baseProfile="tiny" xmlns="http://www.w3.org/2000/svg" xmlns:xlink="http://www.w3.org/1999/xlink" x="0px"
	 y="0px" width="595.3px" height="841.9px" viewBox="0 0 595.3 841.9" xml:space="preserve">
<g id="zapad_x5F_kz">
	<polygon fill="#1E6FD1" stroke="#A3A3A3" stroke-miterlimit="10" points="34.5,121.1 37,119.4 40.5,120.4 42.8,120.2 46.3,118.7 
		49.7,117.2 53.2,116.1 57.8,113.9 61.7,111.2 64.7,111.7 68.8,112.1 70.7,113.6 70.7,115.1 72.7,116.6 74.5,116.4 77.8,119.1 
		82.2,114.1 84.2,110.7 86.5,111.2 89,112.1 91.2,111.4 94.2,109.1 96.3,104.7 97.8,102.4 99.8,102.4 104,103.7 105.7,103.6 
		107.3,101.4 108.5,98.4 109.3,95.6 109.3,93.2 108.9,90.5 111.3,86.3 109.5,83.5 110.3,78.9 102.6,70.5 99.4,64.7 89.4,64.7 
		86.7,56.1 80.5,58.1 79.1,61.9 74.6,60.4 76.3,57.1 70.4,53.6 58.2,60.8 54.9,63.2 50.2,61.7 48.7,67.5 37.4,67.9 39.6,81.4 
		33.6,83.1 29.4,82.2 28.9,76.4 27.4,74.6 27.1,72.6 24.8,69.5 17.6,77.6 14.2,77.8 9.2,85.9 11.4,91 0.7,102.1 7.3,109.1 	"/>
</g>
<g id="atirau">
	<polyline fill="#1067BF" stroke="#A3A3A3" stroke-miterlimit="10" points="7.7,109.7 7.2,111.5 8.3,112.8 6.2,112.8 6.9,117.8 
		8.3,117.5 8.3,115.4 10.6,115.8 12.8,118.9 15.4,119.6 18.1,122 18.9,125.1 21.8,129.4 22.8,136.3 24.8,141.1 24,143.3 19.6,141.3 
		17.5,144.1 22.8,150.7 27.1,150.3 31.2,151.6 38.8,148.4 51.8,146.2 56.8,144.8 66.1,152.1 67.5,150.2 75,149.7 76.5,151.5 
		81.3,154.7 80.2,161.1 78.3,163.4 77.8,168.5 77.4,169.9 82.3,170.5 87.3,166.5 91.4,166.4 93.1,168 97.2,166.8 107,167.8 
		109.5,165.8 114.4,166.7 116,171 122.6,173 121.3,168.1 110.3,161.6 107.5,154.4 106.8,148.8 109.2,142.2 110.3,137.3 108.8,134.3 
		109.3,128.3 111,125 110.9,123.1 107.3,119.7 103.5,120.9 100,118.8 100.1,116 100,111.2 94.6,108.9 89.4,111.9 84.6,110.6 
		78.3,118.9 74.9,116.3 73.1,116.4 71.1,114.9 71.1,113.4 69.3,111.9 62.1,111.1 58.3,113.8 53.6,115.9 46.8,118.6 43.3,120.1 
		40.9,120.3 37.4,119.3 34.9,120.9 9.6,109.7 	"/>
</g>
<g id="mangistau">
	<polygon fill="#1B84DB" stroke="#D3D3D3" stroke-miterlimit="10" points="122.6,173 123.2,175.8 123.6,178.8 124.1,182.2 
		123.3,185.8 123.3,189.3 122.6,193.4 121.7,194.6 112.3,196.2 111.2,204.6 109,221 107.2,236.1 105.6,246.1 103.9,255.4 
		102.4,262.8 101.5,265.7 96.2,267 92.5,264.8 86.3,258.4 87.9,258 87.4,254.1 80.5,248.6 75.5,246.6 69.4,245.1 64.3,245.8 
		59.1,248.1 52.4,253.1 51.3,249.2 52.6,243.9 55.2,239.5 56.9,237.7 56.2,234 58.3,234.8 58.2,232.1 52.2,229.9 47.3,227.6 
		44.1,220 41.5,221.4 39.5,220.9 39.5,218.4 41.1,216.9 41.2,214.8 39.2,208.8 36.8,203.9 36.8,199.7 35.6,197.2 30.5,196.9 
		28.8,193 29.9,190.1 31.8,188.5 33.8,189.3 35.2,190.7 38.8,190.6 41.1,193.6 42.8,195.4 44.1,194.6 46.4,194.7 48.5,195.6 
		48.5,193.1 45.7,192.7 45.3,190.3 43,187.6 47.2,182.5 47.9,180 51.3,177.6 57.3,178.8 59.7,180.1 65.6,180.7 66.6,179.5 68.8,182 
		71.9,183 74.2,183.6 76.1,183.9 77.3,185 85.1,184.7 84.3,187 80.3,188.2 77.3,191.9 73.8,195.4 70.3,197.6 69,199.7 69.3,202.5 
		72.8,202.3 73.9,200 76.5,197.6 78.6,195.8 80.8,191.7 85.2,191.6 86.1,189.6 88.3,191.1 88.4,192.7 90.2,191.6 90.8,190.1 
		91.1,185.1 93.3,185 93.5,183.4 89.3,180.3 86.7,182.1 83,181.4 78.3,181.1 72.3,181.1 69.2,176.9 72.3,176.9 72.9,172.6 
		77.4,169.9 82.3,170.5 87.3,166.5 91.4,166.4 93.1,168 97.2,166.8 107,167.8 109.5,165.8 114.4,166.7 116,171 	"/>
</g>
<g id="aktubinsk">
	<polygon fill="#287CB5" stroke="#D3D3D3" stroke-miterlimit="10" points="111.3,86.3 113.7,84.1 113.7,79.7 115.2,77.4 116.8,78.7 
		119.8,79.9 119.8,83.4 119.8,84.9 122.6,85.2 123.5,87.3 126.7,87.3 128.8,85.7 129.5,80.9 131.5,79.7 133,82.4 134.3,82.4 
		134.3,79.1 137,78.6 137,81.4 139.7,81.6 139.7,78.9 144.7,78.7 146.2,82.4 147,83.6 151.5,83.6 151.5,80.9 154.5,82.4 157.3,80.2 
		159.3,83.7 162.5,83.7 162.5,87.3 166.8,90.9 173.3,90.9 171.2,93.2 177,94.1 178.7,92.1 178.7,89.2 180.7,86.6 183.2,91.4 
		191.5,91.9 196,89.6 199,89.6 199,83.9 201.2,82.2 201.2,79.9 204.5,83.6 205.8,85.1 207.5,85.7 208.7,89.9 207.2,92.7 210.5,94.1 
		210.5,98.9 212.3,102.7 215.2,108.9 215.2,110.7 213.2,110.7 211.8,108.9 208.3,115.4 208.2,117.1 210,121.1 207.7,123.4 
		211.3,126.6 211.3,129.4 213.3,130.4 215.2,129.1 217.7,130.4 217,133.1 224.2,137.6 231.8,149.2 230.8,151.1 213.7,162.6 
		209.2,161.1 208.2,157.9 206,155.4 205.3,153.4 200.7,149.6 192.7,149.1 190.7,151.9 187.8,160.7 182.8,161.1 178.8,165.8 
		175.3,165.1 167.2,169.6 164.2,172.1 162.7,175.1 157.5,182.4 154.7,182.4 151.8,184.7 150.5,188.6 122.6,193.4 123.3,185.8 
		124.1,182.2 122.6,173 121.3,168.1 110.3,161.6 107.5,154.4 106.8,148.8 110.3,137.3 108.8,134.3 109.3,128.3 111,125 110.9,123.1 
		107.3,119.7 103.5,120.9 100,118.8 100,111.2 94.6,108.9 97.8,102.4 105.7,103.6 108.5,98.4 109.3,93.2 108.9,90.5 	"/>
</g>
<g id="kostanai">
	<polygon fill="#289CDD" stroke="#D3D3D3" stroke-miterlimit="10" points="228.7,144.5 231.8,141.7 230.3,138.4 233.8,137.6 
		235.7,135.4 235.7,133.9 238.3,132.6 238.3,129.7 249.3,130.9 251.7,128.6 254,128.6 255,126.9 256.8,128.6 258,126.9 258,125.2 
		263.5,121.6 264.5,118.4 269.5,113.9 271.2,110.1 273.8,107.6 274.5,105.2 279.5,101.7 280.5,100.1 280.5,97.7 278.7,96.4 
		273.7,97.6 270,100.7 268.2,99.7 267.5,97.2 268.5,95.4 268,93.6 264.8,92.6 262.3,94.1 260.5,94.6 259.2,92.6 256.7,92.6 
		253.8,89.9 251.7,88.2 249.3,91.2 247.8,90.9 248,85.6 246,80.7 248,77.4 246.7,74.7 244.5,74.7 244.8,72.2 248.2,71.4 251.2,69.9 
		253,67.1 254.6,63.1 255.8,58.9 255.5,54.6 257.8,52.7 255.5,49.6 256,47.9 258.2,47.9 258.2,40.6 255.7,38.2 258,35.9 257.2,33.6 
		255.7,32.4 255.3,29.7 258.5,29.7 259.3,27.7 257.5,26.6 256.7,24.7 257.8,22.6 256.8,18.9 253.5,16.2 247,18.7 245.7,23.7 
		243.5,23.7 242.5,22.6 240.2,24.4 226.5,24.4 221.2,27.6 217.2,27.4 215.8,31.2 213.3,31.6 212,28.1 210.3,29.7 208.3,29.6 
		207.5,27.9 203.3,30.1 200.2,26.6 198.7,32.1 196.5,33.7 198.3,35.9 202.8,35.9 203.8,38.2 198.8,39.4 198.7,41.6 203.3,41.1 
		206.5,43.7 210,45.2 210.2,49.2 206.3,49.4 206.2,47.4 202.8,47.4 202.3,44.9 200.2,46.9 198.2,45.9 196.5,49.4 194,51.1 
		192.3,51.4 192.3,53.6 195.3,58.7 194.3,61.6 190.5,63.7 188.8,64.1 187,66.6 182,67.2 186.7,69.1 187.3,72.2 188.8,73.9 
		193.2,74.1 194.3,77.4 197.2,78.9 201.2,79.9 204.5,83.6 205.8,85.1 207.5,85.7 208.7,89.9 207.2,92.7 210.5,94.1 210.5,98.9 
		212.3,102.7 215.2,108.9 215.2,110.7 213.2,110.7 211.8,108.9 208.3,115.4 208.2,117.1 210,121.1 207.7,123.4 211.3,126.6 
		211.3,129.4 213.3,130.4 215.2,129.1 217.7,130.4 217,133.1 224.2,137.6 	"/>
</g>
<g id="sever_x5F_kz">
	<polyline fill="#2294C6" stroke="#D3D3D3" stroke-miterlimit="10" points="340.8,24.7 336,24.7 333,21.7 331.3,23.2 334,26.7 
		330.2,27.9 327.3,27.9 328.2,21.7 325.2,18.9 326.3,22.4 325.2,24.1 323,21.4 321,21.4 321,24.2 312.8,25.1 312.8,20.4 315,20.4 
		314.2,14.4 314.8,12.4 311.5,10.7 311.5,6.1 310.3,5.4 309.7,2.9 306.3,2.2 303.8,4.4 302.6,6.2 297.6,1.6 294.3,2.9 293.2,1.6 
		291.7,2.4 289.2,0.7 288.5,3.2 286.3,1.6 285.3,4.4 280.5,5.9 280.5,10.1 277.8,11.2 275.7,9.4 274.3,11.9 268,13.6 260.2,16.2 
		254.9,17.3 256.8,18.9 257.8,22.6 256.7,24.7 257.5,26.6 259.3,27.7 258.5,29.7 255.3,29.7 255.7,32.4 257.2,33.6 258,35.9 
		255.7,38.2 258.2,40.6 258.2,47.9 256,47.9 255.5,49.6 257.8,52.7 255.5,54.6 255.8,58.9 254.9,62.1 261,62.1 263.5,60.1 
		265.2,64.1 269.3,64.1 270.5,64.9 269.5,61.6 271.7,60.1 274.3,62.5 277,62.5 279.5,60.1 278.5,57.9 281.5,57.9 284.5,53.2 
		287.8,53.2 287.8,47.1 291.2,44.6 288.3,40.7 288.8,38.1 293,36.2 296,38.6 297.6,35.2 301.8,34.4 303.3,36.9 301.2,39.6 
		305.8,41.4 309.3,38.6 314.5,41.9 316.8,39.4 320.7,43.2 320.7,48.1 321.8,49.6 327.8,49.6 329.7,46.7 333.2,46.4 334.7,49.6 
		335.8,52.1 339.8,51.2 342.2,49.6 345.8,51.6 350.3,51.9 349.2,49.6 350.3,46.9 347.5,44.6 345,45.2 345.3,41.7 342,38.7 
		342.8,35.9 339.5,29.7 340.7,26.4 343.7,26.4 343.8,22.4 	"/>
</g>
<g id="akmola">
	<polygon fill="#2294C6" stroke="#D3D3D3" stroke-miterlimit="10" points="278.7,96.4 278.7,93.9 283.2,93.9 285.8,91.7 290.8,91.7 
		292,92.9 289.3,96.4 287.3,99.6 288,103.2 294.8,105.9 298.5,101.7 300.5,103.6 302.6,103.2 304.3,101.4 307.7,103.7 309,105.9 
		310.7,105.1 314.2,103.2 315.2,101.7 314,97.7 318,95.9 320,92.9 323.5,89.2 327.2,90.9 328.3,95.4 331.2,96.1 333.2,93.9 
		333.2,91.9 335.3,91.6 337.3,88.1 341.3,85.7 345,85.7 349,83.6 349,79.2 345.8,79.2 343.2,79.2 344.8,76.2 349.8,76.2 351.7,72.4 
		349.5,69.2 352.8,64.9 352,61.7 351.3,55.9 350.3,51.9 345.8,51.6 342.2,49.6 335.8,52.1 333.2,46.4 329.7,46.7 327.8,49.6 
		321.8,49.6 320.7,48.1 320.7,43.2 316.8,39.4 314.5,41.9 309.3,38.6 305.8,41.4 301.2,39.6 303.3,36.9 301.8,34.4 297.6,35.2 
		296,38.6 293,36.2 288.8,38.1 288.3,40.7 291.2,44.6 287.8,47.1 287.8,53.2 284.5,53.2 281.5,57.9 278.5,57.9 279.5,60.1 277,62.5 
		274.3,62.5 271.7,60.1 269.5,61.6 270.5,64.9 269.3,64.1 265.2,64.1 263.5,60.1 261,62.1 254.9,62.1 253.6,65.5 253,67.1 
		251.2,69.9 248.2,71.4 244.8,72.2 244.5,74.7 246.7,74.7 248,77.4 246,80.7 248,85.6 247.8,90.9 249.3,91.2 251.7,88.2 253.8,89.9 
		256.7,92.6 259.2,92.6 260.5,94.6 264.8,92.6 268,93.6 268.5,95.4 267.5,97.2 268.2,99.7 270,100.7 273.7,97.6 	"/>
</g>
<g id="pavlodar">
	<polygon fill="#2D96BA" stroke="#D3D3D3" stroke-miterlimit="10" points="342.8,35.9 346.5,32.1 349.3,32.8 350.3,35.9 352.8,35.9 
		355.5,34.4 355.5,32.1 352.8,29.9 356.5,29.9 359.3,25.7 362,27.1 364.3,24.9 365.8,20.9 368,20.9 373,16.2 373,12.4 375,13.6 
		377,10.7 379.8,12.4 378.3,15.1 375.7,16.2 375,18.6 377.7,21.9 383.3,24.4 388.3,27.1 396.3,32.8 400.7,38.2 405,43.2 410,50.2 
		417.2,58.9 415,60.6 414.3,62.7 412.5,63.9 411.8,66.9 409.2,68.9 406.3,68.9 406.2,71.4 407.5,74.9 411.8,76.9 415,79.1 
		413.8,83.2 417.2,87.2 416,91.1 412.7,93.2 409.3,93.2 403.5,90 401.5,88.9 400.8,85.4 398.2,84.1 394.5,81.6 391.3,84.1 
		390.7,86.9 390.3,91.4 388,91.6 385.7,93.2 384.7,94.4 382.3,92.9 379.3,94.4 375.7,97.6 372.3,99.7 368.5,99.7 367.5,97.2 
		368.7,95.2 367.2,92.2 365.7,89.4 364,93.2 362,88.7 359.5,88.6 357.7,90.4 355.5,89.1 354.2,85.7 356.2,84.1 356.2,81.2 
		354.8,77.1 350.3,77.2 349.8,76.2 351.7,72.4 349.5,69.2 352.8,64.9 350.3,51.9 349.2,49.6 350.3,46.9 347.5,44.6 345,45.2 
		345.3,41.7 342,38.7 	"/>
</g>
<g id="vost_x5F_kz">
	<polygon fill="#2D96BA" stroke="#D3D3D3" stroke-miterlimit="10" points="473.3,154.7 477.3,157.4 478.2,161.4 480.2,163.6 
		480.2,166.1 482.2,167.6 483.3,146.2 485,133.4 490.3,133.4 498.2,135.2 508.2,131.4 509.2,134.9 515.5,128.1 518.5,125.9 
		518.5,120.1 512.5,108.2 514.7,102.7 515.3,99.7 523,94.7 525.7,88.6 522.5,85.1 525.7,82.7 525.7,80.2 522.5,80.2 520.7,76.7 
		517.7,76.7 518.8,71.7 516.3,71.7 515.3,75.7 513,80.4 505.2,80.6 502.3,81.7 498.5,77.6 494,73.2 485.3,71.7 483.3,66.7 
		474.5,62.9 468.3,60.1 464.2,64.4 462.5,67.9 458.8,67.6 456,70.4 452.5,68.7 448.7,72.1 446.8,71.7 446.8,68.1 442.8,68.2 
		440.5,65.9 435.7,62.7 433.5,65.1 433.5,69.4 431.3,71.2 429.5,74.6 417.2,58.9 415,60.6 414.3,62.7 412.5,63.9 411.8,66.9 
		409.2,68.9 406.3,68.9 406.2,71.4 407.5,74.9 415.8,79.4 413.8,83.2 417.2,87.2 416,91.1 412.7,93.2 409.3,93.2 403.5,90 
		398.3,97.1 397.3,104.1 401,107.4 402.3,109.6 400.7,112.2 402.3,116.4 404.2,119.1 404.2,122.6 402.5,125.4 399,126.4 
		397.3,128.1 398.8,129.7 400.8,129.7 401.7,132.1 404.2,133.1 405.5,134.2 403.2,136.4 402.5,140.1 404.2,143.9 406.2,144.6 
		406.2,147 403.7,148.4 401.8,150.7 403,153.4 404.8,154.7 407.5,151.7 411.2,151.6 412.5,149.9 413.8,150.9 416,148.1 418.7,149.2 
		420.8,147 423,148.2 425,147.9 428.3,150.1 432.2,147.7 438.7,154.7 447.3,148.4 449.8,151.4 455.3,151.9 456.8,150.7 459.3,151.9 
		461.5,151.1 463,150.2 465.2,152.4 467.7,152.9 468.4,153.2 469.7,153.7 	"/>
</g>
<g id="karag">
	<polyline fill="#2D96BA" stroke="#D3D3D3" stroke-miterlimit="10" points="356.2,81.2 354.8,77.1 350.3,77.2 348.6,76.2 
		344.8,76.2 343.2,79.2 349,79.2 349,83.6 345,85.7 341.3,85.7 337.3,88.1 335.3,91.6 333.2,91.9 333.2,93.9 331.2,96.1 328.3,95.4 
		327.2,90.9 323.5,89.2 318,95.9 314,97.7 315.2,101.7 309,105.9 307.7,103.7 304.3,101.4 302.6,103.2 300.5,103.6 298.5,101.7 
		294.8,105.9 288,103.2 287.3,99.6 292,92.9 290.8,91.7 285.8,91.7 283.2,93.9 278.7,93.9 278.7,96.4 280.5,97.7 280.5,100.1 
		279.5,101.7 274.5,105.2 273.8,107.6 271.2,110.1 269.5,113.9 264.5,118.4 263.5,121.6 258,125.2 258,126.9 256.8,128.6 255,126.9 
		254,128.6 251.7,128.6 249.3,130.9 238.3,129.7 238.3,132.6 235.7,133.9 235.7,135.4 233.8,137.6 230.3,138.4 231.8,141.7 
		228.7,144.5 231.8,149.2 230.8,151.1 213.7,162.6 219,167.8 226.9,171.8 234.6,175.1 240.7,178.6 242.7,178.6 250.2,184.3 
		269.7,184.3 271.9,187.5 300.1,186.7 361.9,181.9 361.9,179 364.6,176.8 366.8,177.2 365.7,175.1 373.5,167.6 373.5,164.8 
		377.9,164.5 377.9,162.6 382.3,164.5 387.4,165 391.5,161 392.8,163.7 397.3,161.9 399.4,163.9 402.3,163 404.7,164.5 404.7,162.1 
		409.5,163.9 414.3,161 411.2,151.6 407.5,151.7 404.8,154.7 401.8,150.7 403.7,148.4 406.2,147 406.2,144.6 404.2,143.9 
		402.5,140.1 403.2,136.4 405.5,134.2 401.7,132.1 400.8,129.7 398.8,129.7 397.3,128.1 399,126.4 402.5,125.4 404.2,122.6 
		404.2,119.1 402.3,116.4 400.7,112.2 402.3,109.6 401,107.4 397.3,104.1 398.3,97.1 403.5,90 401.5,88.9 400.8,85.4 394.5,81.6 
		391.3,84.1 390.7,86.9 390.3,91.4 388,91.6 384.7,94.4 382.3,92.9 379.3,94.4 375.7,97.6 372.3,99.7 368.5,99.7 367.5,97.2 
		368.7,95.2 365.7,89.4 364,93.2 362.7,90.3 362,88.7 359.5,88.6 357.7,90.4 355.5,89.1 354.2,85.7 356.2,84.1 	"/>
</g>
<g id="almaty">
	<polygon fill="#36B4D6" stroke="#D3D3D3" stroke-miterlimit="10" points="411.2,151.6 414.3,161 422.9,161 425.4,162.9 
		427.2,157.2 429.5,157.2 431.5,158.8 430.4,155.4 433.1,155.4 434,154.3 437.4,157.2 435.2,159.3 434,162.9 428.1,164 427.9,167.6 
		422,166.5 419.5,165 418.4,165.9 412.5,165.2 411.2,167.6 403.4,165.6 398.6,165.9 397.3,168.6 393.9,168.6 392.3,167.6 
		388.7,169.7 387.4,165 385.3,169.7 382.5,169.7 380,170.9 378.5,174.9 380.7,176.3 380.3,178.1 375.7,179.9 372.1,179.9 
		370.5,182.7 372.3,186.3 372.3,188.8 370.5,191.5 371.6,194.4 371.6,197.6 373.2,201.9 376.4,201.9 378,205.3 378,209 380.5,211.2 
		384.1,211.2 387.8,211.2 391.4,213.1 390.9,216.2 389.1,217.6 389.6,220.5 385.9,223.9 387.1,227.1 390.5,223 392.7,224.6 
		392.1,229.6 392.1,232.8 394.6,234.2 397.3,236 399.8,238 407.7,235.1 414.3,235.1 417.9,231.9 434,231.2 447.2,230.3 452,228.9 
		453.1,232.6 458.3,235.3 461.5,233.9 465.1,235.1 468.3,235.7 465.8,230.3 466.5,225.8 471.7,225.5 473.3,224.6 467.8,223.5 
		466.5,221.4 469.7,219.2 473.3,219.4 472.2,216.2 471,214.4 470.6,211.9 467.4,208.1 464.4,207.8 464.7,205.6 461.5,201.9 
		461.5,196 458.1,193.3 459,189.2 455.8,188.8 453.8,191.3 452.6,189.2 450.6,187.5 451.5,185.8 454.7,183.8 458.8,183.3 
		463.8,180.2 468.3,179.2 476,172.7 479.6,176.5 481.9,175.8 484.6,173.3 486.2,174.9 488.7,175.2 488.7,171.8 488.7,169.5 
		482.2,167.6 480.2,166.1 477.1,164.3 474.7,165.9 467.2,160.9 468.4,153.2 466.3,152.6 463.3,155 460.4,154.5 457,154.7 
		455.3,151.9 449.8,151.4 447.3,148.4 438.7,154.7 432.2,147.7 428.3,150.1 425,147.9 423,148.2 420.8,147 418.7,149.2 416,148.1 
		413.8,150.9 412.5,149.9 	"/>
</g>
<g id="zhambyl">
	<polygon fill="#1C8299" stroke="#D3D3D3" stroke-miterlimit="10" points="300.1,186.7 300.1,190.7 304.1,196 305.6,197.5 
		305.6,200.6 305.6,205.7 309.7,207.2 311.2,213.8 311.2,218.6 311.2,223.7 308.7,230 305.7,234.3 305.7,238 307.4,238 308.9,241.7 
		314,240.1 318.3,244.7 318.3,247.2 318.3,249.3 326.4,254.8 328.4,252.6 331.7,254.8 329.4,250 331.7,247 336,245.7 338.3,247.5 
		340.3,246 342.4,247 344.6,246.2 347.2,247.2 351.7,247.2 355.3,248.2 363.7,248.8 367.2,249.8 367.2,244.9 368.5,238 370.5,238 
		373,238 373,235.8 375.1,233.8 375.1,231.5 381.4,236.1 386.7,238 393.1,239.9 397.3,239.6 399.8,238 392.1,232.8 392.7,224.6 
		390.5,223 387.1,227.1 385.9,223.9 389.6,220.5 389.1,217.6 390.9,216.2 391.4,213.1 387.8,211.2 380.5,211.2 378,209 378,205.3 
		376.4,201.9 373.2,201.9 370.5,201.1 366.7,195 363.7,194.2 360.6,189.7 361.6,187.5 359.6,186.7 362.6,184.4 361.9,181.9 	"/>
</g>
<g id="Uzh_x5F_kz">
	<polygon fill="#368896" stroke="#D3D3D3" stroke-miterlimit="10" points="256.2,262.9 256.2,267.5 263.5,267.8 268.3,283.2 
		279,283 281.8,281.2 284.6,282.7 289.6,285.5 289.1,290.8 291.7,291.1 296,292.9 297.6,291.1 295,287 296,283.2 298.8,281.7 
		303.1,277.4 307.4,270.6 311.4,270.6 314,267.5 317.8,267.5 321.8,264.5 321.8,261.4 324.4,259.9 326.1,259.9 329.9,256.4 
		327.7,256.4 326.4,254.8 318.3,249.3 318.3,244.7 314,240.1 308.9,241.7 307.4,238 305.7,238 305.7,236.8 305.7,234.3 308.7,230 
		311.2,223.7 311.2,213.8 309.7,207.2 305.6,205.7 305.6,197.5 300.1,190.7 300.1,186.7 271.9,187.5 272.8,195 272.8,201.1 
		277,204.9 275.9,218.3 280.5,219.6 281.8,222.4 285.1,223.9 284.3,226.2 286.6,228.7 284.8,230 282,231.8 280.5,236.1 283,239.8 
		283,241.4 259,257.4 256.2,260.4 	"/>
</g>
<g id="Kyzyl">
	<polygon fill="#58D3E0" stroke="#D3D3D3" stroke-miterlimit="10" points="157.5,182.4 161.1,182.4 159.3,186.7 161.1,188.7 
		165.2,186.7 166.7,181.9 163.2,178.5 165.7,176 168.5,176 168.5,181.9 174.8,181.9 178.4,182.3 173.8,184.4 170,187.5 166.4,191 
		170.7,191 174,193.4 174.5,197.5 173.5,203.1 174.8,209.2 178.4,211.2 180.9,218.3 186.2,224.9 194.1,233.3 200.4,235.6 
		208.8,232.8 231.3,235.6 239.2,230.8 243.5,235.6 247.3,239.8 251.9,248 256.2,248 257.4,254.8 257.4,259 283,241.4 283,239.8 
		280.5,236.1 282,231.8 286.6,228.7 284.3,226.2 285.1,223.9 281.8,222.4 280.5,219.6 275.9,218.3 277,204.9 272.8,201.1 
		271.9,187.5 269.7,184.3 250.2,184.3 242.7,178.6 240.7,178.6 234.6,175.1 219,167.8 213.7,162.6 209.2,161.1 208.2,157.9 
		206,155.4 205.3,153.4 200.7,149.6 192.7,149.1 187.8,160.7 182.8,161.1 178.8,165.8 175.3,165.1 169.2,168.4 167.2,169.6 
		164.2,172.1 	"/>
</g>
</svg>
